<?xml version="1.0" encoding="UTF-8"?>
<svg xmlns="http://www.w3.org/2000/svg" xmlns:xlink="http://www.w3.org/1999/xlink" width="400px" height="462px" viewBox="0 0 400 461" version="1.1">
<g id="surface1">
<path style=" stroke:none;fill-rule:nonzero;fill:rgb(0%,65.882353%,90.980392%);fill-opacity:1;" d="M 372.792969 449.402344 L 339.339844 412.410156 L 339.339844 449.402344 L 328.734375 449.402344 L 328.734375 368.320312 L 339.339844 368.320312 L 339.339844 405.894531 L 372.910156 368.320312 L 386.3125 368.320312 L 349.480469 408.917969 L 386.664062 449.402344 Z M 234.789062 408.800781 C 234.789062 400.890625 236.578125 393.796875 240.152344 387.515625 C 243.726562 381.15625 248.582031 376.191406 254.722656 372.625 C 260.9375 369.058594 267.816406 367.273438 275.351562 367.273438 C 284.210938 367.273438 291.941406 369.40625 298.546875 373.671875 C 305.152344 377.9375 309.96875 383.984375 313 391.820312 L 300.296875 391.820312 C 298.042969 386.933594 294.777344 383.171875 290.503906 380.535156 C 286.308594 377.898438 281.257812 376.578125 275.351562 376.578125 C 269.679688 376.578125 264.589844 377.898438 260.082031 380.535156 C 255.578125 383.171875 252.039062 386.933594 249.476562 391.820312 C 246.914062 396.625 245.628906 402.289062 245.628906 408.800781 C 245.628906 415.238281 246.914062 420.902344 249.476562 425.785156 C 252.039062 430.59375 255.578125 434.316406 260.082031 436.953125 C 264.589844 439.589844 269.679688 440.910156 275.351562 440.910156 C 281.257812 440.910156 286.308594 439.628906 290.503906 437.070312 C 294.777344 434.433594 298.042969 430.671875 300.296875 425.785156 L 313 425.785156 C 309.96875 433.542969 305.152344 439.550781 298.546875 443.816406 C 291.941406 448.003906 284.210938 450.097656 275.351562 450.097656 C 267.816406 450.097656 260.9375 448.355469 254.722656 444.863281 C 248.582031 441.296875 243.726562 436.371094 240.152344 430.089844 C 236.578125 423.808594 234.789062 416.714844 234.789062 408.800781 Z M 183.972656 450.214844 C 176.433594 450.214844 169.558594 448.472656 163.339844 444.980469 C 157.125 441.414062 152.191406 436.488281 148.539062 430.207031 C 144.964844 423.847656 143.175781 416.714844 143.175781 408.800781 C 143.175781 400.890625 144.964844 393.796875 148.539062 387.515625 C 152.191406 381.15625 157.125 376.230469 163.339844 372.742188 C 169.558594 369.171875 176.433594 367.390625 183.972656 367.390625 C 191.585938 367.390625 198.503906 369.171875 204.71875 372.742188 C 210.933594 376.230469 215.832031 381.117188 219.40625 387.398438 C 222.980469 393.679688 224.765625 400.816406 224.765625 408.800781 C 224.765625 416.789062 222.980469 423.925781 219.40625 430.207031 C 215.832031 436.488281 210.933594 441.414062 204.71875 444.980469 C 198.503906 448.472656 191.585938 450.214844 183.972656 450.214844 Z M 183.972656 441.027344 C 189.644531 441.027344 194.734375 439.707031 199.242188 437.070312 C 203.824219 434.433594 207.398438 430.671875 209.964844 425.785156 C 212.605469 420.902344 213.925781 415.238281 213.925781 408.800781 C 213.925781 402.289062 212.605469 396.625 209.964844 391.820312 C 207.398438 386.933594 203.863281 383.171875 199.359375 380.535156 C 194.851562 377.898438 189.722656 376.578125 183.972656 376.578125 C 178.222656 376.578125 173.09375 377.898438 168.585938 380.535156 C 164.078125 383.171875 160.503906 386.933594 157.863281 391.820312 C 155.300781 396.625 154.015625 402.289062 154.015625 408.800781 C 154.015625 415.238281 155.300781 420.902344 157.863281 425.785156 C 160.503906 430.671875 164.078125 434.433594 168.585938 437.070312 C 173.171875 439.707031 178.300781 441.027344 183.972656 441.027344 Z M 134.085938 368.320312 L 134.085938 376.929688 L 111.941406 376.929688 L 111.941406 449.402344 L 101.332031 449.402344 L 101.332031 376.929688 L 79.070312 376.929688 L 79.070312 368.320312 Z M 41.421875 450.214844 C 36.0625 450.214844 31.246094 449.285156 26.96875 447.425781 C 22.773438 445.484375 19.472656 442.847656 17.0625 439.511719 C 14.65625 436.101562 13.410156 432.183594 13.332031 427.765625 L 24.640625 427.765625 C 25.027344 431.5625 26.582031 434.78125 29.300781 437.417969 C 32.097656 439.980469 36.140625 441.257812 41.421875 441.257812 C 46.472656 441.257812 50.4375 440.019531 53.3125 437.535156 C 56.265625 434.976562 57.742188 431.71875 57.742188 427.765625 C 57.742188 424.664062 56.886719 422.140625 55.175781 420.203125 C 53.46875 418.265625 51.332031 416.789062 48.765625 415.78125 C 46.203125 414.773438 42.746094 413.6875 38.394531 412.523438 C 33.03125 411.128906 28.71875 409.734375 25.457031 408.335938 C 22.269531 406.941406 19.511719 404.769531 17.179688 401.824219 C 14.925781 398.796875 13.800781 394.765625 13.800781 389.726562 C 13.800781 385.304688 14.925781 381.386719 17.179688 377.976562 C 19.433594 374.5625 22.582031 371.925781 26.621094 370.066406 C 30.738281 368.203125 35.441406 367.273438 40.722656 367.273438 C 48.339844 367.273438 54.554688 369.171875 59.375 372.972656 C 64.269531 376.773438 67.027344 381.8125 67.648438 388.097656 L 55.992188 388.097656 C 55.605469 384.992188 53.972656 382.28125 51.097656 379.953125 C 48.222656 377.550781 44.414062 376.347656 39.675781 376.347656 C 35.246094 376.347656 31.632812 377.511719 28.835938 379.835938 C 26.039062 382.085938 24.640625 385.265625 24.640625 389.375 C 24.640625 392.324219 25.457031 394.726562 27.085938 396.589844 C 28.796875 398.449219 30.855469 399.882812 33.265625 400.890625 C 35.75 401.824219 39.207031 402.910156 43.636719 404.148438 C 49 405.621094 53.3125 407.097656 56.574219 408.570312 C 59.839844 409.964844 62.636719 412.175781 64.96875 415.199219 C 67.300781 418.148438 68.464844 422.179688 68.464844 427.300781 C 68.464844 431.253906 67.414062 434.976562 65.316406 438.464844 C 63.21875 441.957031 60.113281 444.789062 55.992188 446.957031 C 51.875 449.128906 47.019531 450.214844 41.421875 450.214844 Z M 97.808594 66.632812 L 56.933594 90.1875 L 56.933594 137.296875 L 302.1875 278.617188 L 343.0625 255.066406 L 343.0625 207.957031 Z M 200 7.75 L 56.933594 90.1875 L 56.933594 137.296875 L 97.808594 160.847656 L 97.808594 113.742188 L 200 54.855469 L 302.1875 113.742188 L 302.1875 137.296875 L 343.0625 160.847656 L 343.0625 90.1875 Z M 56.933594 184.402344 L 56.933594 255.066406 L 67.152344 260.953125 L 200 337.503906 L 343.0625 255.066406 L 343.0625 207.957031 L 302.1875 184.402344 L 302.1875 231.511719 L 200 290.394531 L 97.808594 231.511719 L 97.808594 207.957031 Z M 56.933594 184.402344 "/>
</g>
</svg>
