<?xml version="1.0" encoding="UTF-8" standalone="no"?>
<!-- Created with Inkscape (http://www.inkscape.org/) -->

<svg
   width="600mm"
   height="692.82098mm"
   viewBox="0 0 600 692.82099"
   version="1.1"
   id="svg623"
   sodipodi:docname="LOGO FINAL - export.svg"
   inkscape:version="1.2.2 (732a01da63, 2022-12-09)"
   xmlns:inkscape="http://www.inkscape.org/namespaces/inkscape"
   xmlns:sodipodi="http://sodipodi.sourceforge.net/DTD/sodipodi-0.dtd"
   xmlns="http://www.w3.org/2000/svg"
   xmlns:svg="http://www.w3.org/2000/svg">
  <sodipodi:namedview
     id="namedview17"
     pagecolor="#ffffff"
     bordercolor="#666666"
     borderopacity="1.0"
     inkscape:showpageshadow="2"
     inkscape:pageopacity="0.0"
     inkscape:pagecheckerboard="0"
     inkscape:deskcolor="#d1d1d1"
     inkscape:document-units="mm"
     showgrid="false"
     inkscape:zoom="0.074395738"
     inkscape:cx="-739.28966"
     inkscape:cy="1572.6707"
     inkscape:window-width="1366"
     inkscape:window-height="705"
     inkscape:window-x="-8"
     inkscape:window-y="-8"
     inkscape:window-maximized="1"
     inkscape:current-layer="layer1" />
  <defs
     id="defs620" />
  <g
     id="layer1"
     transform="translate(197.406,186.979)">
    <g
       id="g1264-8-1"
       transform="matrix(0.76643179,0,0,0.76643179,-11675.363,-8715.3322)"
       style="fill:#00a8e8;fill-opacity:1" />
    <g
       aria-label="STOCK"
       id="text631-3"
       style="font-size:174.836px;line-height:0;font-family:Carlito;-inkscape-font-specification:Carlito;text-align:center;text-anchor:middle;fill:#00a8e8;stroke-width:0.437091">
      <path
         id="path541"
         style="line-height:1.25;font-family:Poppins;-inkscape-font-specification:Poppins"
         d="m 361.78828,488.44485 -50.17793,-55.59784 v 55.59784 H 295.70027 V 366.58416 h 15.91008 v 56.47203 l 50.35276,-56.47203 h 20.10614 l -55.24817,61.01777 55.77268,60.84292 z m -207.0057,-61.01776 q 0,-17.83327 8.04246,-31.99499 8.04245,-14.33655 21.8545,-22.379 13.98688,-8.04246 30.94597,-8.04246 19.9313,0 34.79236,9.61598 14.86106,9.61598 21.67967,27.27442 h -19.05713 q -5.07024,-11.01467 -14.68622,-16.9591 -9.44115,-5.94442 -22.72868,-5.94442 -12.76303,0 -22.90352,5.94442 -10.14049,5.94443 -15.91007,16.9591 -5.76959,10.83983 -5.76959,25.52605 0,14.51139 5.76959,25.52606 5.76958,10.83983 15.91007,16.78425 10.14049,5.94443 22.90352,5.94443 13.28753,0 22.72868,-5.76959 9.61598,-5.94443 14.68622,-16.95909 h 19.05713 q -6.81861,17.4836 -21.67967,27.09958 -14.86106,9.44114 -34.79236,9.44114 -16.95909,0 -30.94597,-7.86762 -13.81205,-8.04246 -21.8545,-22.20417 -8.04246,-14.16172 -8.04246,-31.99499 z m -76.22839,62.24162 q -16.959092,0 -30.945972,-7.86762 -13.98688,-8.04246 -22.204171,-22.20418 -8.042456,-14.33655 -8.042456,-32.16982 0,-17.83327 8.042456,-31.99499 8.217291,-14.33655 22.204171,-22.20417 13.98688,-8.04245 30.945972,-8.04245 17.133928,0 31.12081,8.04245 13.98688,7.86762 22.02933,22.02934 8.04246,14.16171 8.04246,32.16982 0,18.00811 -8.04246,32.16982 -8.04245,14.16172 -22.02933,22.20418 -13.986882,7.86762 -31.12081,7.86762 z m 0,-13.81205 q 12.763028,0 22.90352,-5.94442 10.31532,-5.94443 16.08491,-16.95909 5.94442,-11.01467 5.94442,-25.52606 0,-14.68622 -5.94442,-25.52605 -5.76959,-11.01467 -15.91008,-16.9591 -10.140486,-5.94442 -23.07835,-5.94442 -12.937864,0 -23.078352,5.94442 -10.140488,5.94443 -16.084912,16.9591 -5.769588,10.83983 -5.769588,25.52605 0,14.51139 5.769588,25.52606 5.944424,11.01466 16.084912,16.95909 10.315324,5.94442 23.078352,5.94442 z M 3.724316,366.58416 v 12.93787 h -33.21884 V 488.44485 H -45.4046 V 379.52203 H -78.798275 V 366.58416 Z M -135.27029,489.66871 q -12.06368,0 -21.67966,-4.19607 -9.44114,-4.3709 -14.86106,-11.88885 -5.41992,-7.69278 -5.59475,-17.65843 h 16.95909 q 0.87418,8.56696 6.99344,14.51139 6.29409,5.76958 18.18294,5.76958 11.36434,0 17.83327,-5.59475 6.64377,-5.76959 6.64377,-14.68622 0,-6.99344 -3.84639,-11.36434 -3.84639,-4.3709 -9.61598,-6.64377 -5.76959,-2.27287 -15.5604,-4.89541 -12.06369,-3.14704 -19.4068,-6.29409 -7.16827,-3.14705 -12.41335,-9.79082 -5.07025,-6.8186 -5.07025,-18.18294 0,-9.96565 5.07025,-17.65844 5.07024,-7.69278 14.16171,-11.88885 9.26631,-4.19606 21.15516,-4.19606 17.13392,0 27.97376,8.56696 11.014665,8.56697 12.413353,22.72868 h -17.483603 q -0.87418,-6.99344 -7.34311,-12.23852 -6.46893,-5.41991 -17.13393,-5.41991 -9.96565,0 -16.25975,5.24508 -6.29409,5.07024 -6.29409,14.33655 0,6.64377 3.67156,10.83983 3.84639,4.19607 9.2663,6.46893 5.59475,2.09804 15.56041,4.89541 12.06368,3.32189 19.40679,6.64377 7.34311,3.14705 12.588195,9.96565 5.245079,6.64377 5.245079,18.18295 0,8.91663 -4.720571,16.78425 -4.720573,7.86762 -13.986883,12.76303 -9.26631,4.89541 -21.8545,4.89541 z M -50.692769,-86.831612 -112.00731,-51.43166 V 19.368243 L 255.87995,231.76795 317.19449,196.368 v -70.7999 z m 153.286359,-88.499878 -214.6009,123.89983 v 70.799903 l 61.314541,35.399951 v -70.799903 l 153.286359,-88.499881 153.28636,88.499881 v 35.399952 l 61.31454,35.399951 V -51.43166 Z M -112.00731,90.168146 V 196.368 l 15.328634,8.84999 L 102.59359,320.2686 317.19449,196.368 V 125.5681 L 255.87995,90.168146 V 160.96882 L 102.59359,249.46869 -50.692769,160.96882 V 125.5681 Z" />
    </g>
  </g>
</svg>
